<svg width="24" height="24" viewBox="0 0 24 24" fill="none" xmlns="http://www.w3.org/2000/svg">
<path d="M13.6517 14.1466C13.1613 14.4864 12.5865 14.6667 12 14.6667C11.2139 14.6667 10.4565 14.343 9.89556 13.7612C9.33405 13.1789 9.01587 12.3858 9.01587 11.5556C9.01587 10.9367 9.1929 10.333 9.52286 9.82092C9.85271 9.30898 10.3199 8.91247 10.8634 8.67902C11.4066 8.44564 12.0035 8.38486 12.5791 8.5036C13.1548 8.62236 13.686 8.91595 14.1044 9.3499L14.4163 9.04914L14.1044 9.3499C14.5231 9.78403 14.8099 10.3391 14.9262 10.9456C15.0426 11.5522 14.9827 12.1809 14.7548 12.7514C14.527 13.3217 14.1423 13.8066 13.6517 14.1466ZM6.57098 23.4311L6.31599 23.677L6.57098 23.4311C6.49171 23.3489 6.44444 23.2341 6.44444 23.1111C6.44444 21.5736 7.03354 20.1022 8.07729 19.0198C9.12051 17.938 10.5319 17.3333 12 17.3333C13.4681 17.3333 14.8795 17.938 15.9227 19.0198C16.9665 20.1022 17.5556 21.5736 17.5556 23.1111C17.5556 23.2341 17.5083 23.3489 17.429 23.4311L17.7489 23.7397L17.429 23.4311C17.3503 23.5128 17.247 23.5556 17.1429 23.5556H6.85714C6.75301 23.5556 6.64973 23.5128 6.57098 23.4311Z" fill="#006A76"/>
<path d="M13.6517 14.1466C13.1613 14.4864 12.5865 14.6667 12 14.6667C11.2139 14.6667 10.4565 14.343 9.89556 13.7612C9.33405 13.1789 9.01587 12.3858 9.01587 11.5556C9.01587 10.9367 9.1929 10.333 9.52286 9.82092C9.85271 9.30898 10.3199 8.91247 10.8634 8.67902C11.4066 8.44564 12.0035 8.38486 12.5791 8.5036C13.1548 8.62236 13.686 8.91595 14.1044 9.3499L14.4163 9.04914L14.1044 9.3499C14.5231 9.78403 14.8099 10.3391 14.9262 10.9456C15.0426 11.5522 14.9827 12.1809 14.7548 12.7514C14.527 13.3217 14.1423 13.8066 13.6517 14.1466ZM6.57098 23.4311L6.31599 23.677L6.57098 23.4311C6.49171 23.3489 6.44444 23.2341 6.44444 23.1111C6.44444 21.5736 7.03354 20.1022 8.07729 19.0198C9.12051 17.938 10.5319 17.3333 12 17.3333C13.4681 17.3333 14.8795 17.938 15.9227 19.0198C16.9665 20.1022 17.5556 21.5736 17.5556 23.1111C17.5556 23.2341 17.5083 23.3489 17.429 23.4311L17.7489 23.7397L17.429 23.4311C17.3503 23.5128 17.247 23.5556 17.1429 23.5556H6.85714C6.75301 23.5556 6.64973 23.5128 6.57098 23.4311Z" stroke="#191C1D" stroke-width="0.888889"/>
<path d="M13.6517 14.1466C13.1613 14.4864 12.5865 14.6667 12 14.6667C11.2139 14.6667 10.4565 14.343 9.89556 13.7612C9.33405 13.1789 9.01587 12.3858 9.01587 11.5556C9.01587 10.9367 9.1929 10.333 9.52286 9.82092C9.85271 9.30898 10.3199 8.91247 10.8634 8.67902C11.4066 8.44564 12.0035 8.38486 12.5791 8.5036C13.1548 8.62236 13.686 8.91595 14.1044 9.3499L14.4163 9.04914L14.1044 9.3499C14.5231 9.78403 14.8099 10.3391 14.9262 10.9456C15.0426 11.5522 14.9827 12.1809 14.7548 12.7514C14.527 13.3217 14.1423 13.8066 13.6517 14.1466ZM6.57098 23.4311L6.31599 23.677L6.57098 23.4311C6.49171 23.3489 6.44444 23.2341 6.44444 23.1111C6.44444 21.5736 7.03354 20.1022 8.07729 19.0198C9.12051 17.938 10.5319 17.3333 12 17.3333C13.4681 17.3333 14.8795 17.938 15.9227 19.0198C16.9665 20.1022 17.5556 21.5736 17.5556 23.1111C17.5556 23.2341 17.5083 23.3489 17.429 23.4311L17.7489 23.7397L17.429 23.4311C17.3503 23.5128 17.247 23.5556 17.1429 23.5556H6.85714C6.75301 23.5556 6.64973 23.5128 6.57098 23.4311Z" stroke="#4FD8EC" stroke-opacity="0.05" stroke-width="0.888889"/>
<path d="M11.6015 5.8033L11.7656 6.11245L11.6015 5.8033L10.3887 6.44709C10.2784 6.50564 10.149 6.41165 10.1706 6.28866L10.4081 4.93628C10.4569 4.65838 10.3646 4.37436 10.1618 4.17822L9.17475 3.22373C9.08498 3.13692 9.13439 2.98484 9.25804 2.96737L10.6176 2.77535C10.897 2.73589 11.1386 2.56036 11.2625 2.30684L11.8652 1.07315C11.92 0.960943 12.08 0.960943 12.1348 1.07315L12.7375 2.30684C12.8614 2.56036 13.103 2.73589 13.3824 2.77535L14.742 2.96737C14.8656 2.98484 14.915 3.13692 14.8253 3.22373L13.8382 4.17822C13.6354 4.37436 13.5431 4.65838 13.5919 4.93628L13.8294 6.28866C13.851 6.41165 13.7216 6.50564 13.6113 6.44709L12.3985 5.8033C12.1493 5.67101 11.8507 5.67101 11.6015 5.8033Z" fill="#006A76"/>
<path d="M11.6015 5.8033L11.7656 6.11245L11.6015 5.8033L10.3887 6.44709C10.2784 6.50564 10.149 6.41165 10.1706 6.28866L10.4081 4.93628C10.4569 4.65838 10.3646 4.37436 10.1618 4.17822L9.17475 3.22373C9.08498 3.13692 9.13439 2.98484 9.25804 2.96737L10.6176 2.77535C10.897 2.73589 11.1386 2.56036 11.2625 2.30684L11.8652 1.07315C11.92 0.960943 12.08 0.960943 12.1348 1.07315L12.7375 2.30684C12.8614 2.56036 13.103 2.73589 13.3824 2.77535L14.742 2.96737C14.8656 2.98484 14.915 3.13692 14.8253 3.22373L13.8382 4.17822C13.6354 4.37436 13.5431 4.65838 13.5919 4.93628L13.8294 6.28866C13.851 6.41165 13.7216 6.50564 13.6113 6.44709L12.3985 5.8033C12.1493 5.67101 11.8507 5.67101 11.6015 5.8033Z" stroke="#191C1D" stroke-width="0.7"/>
<path d="M11.6015 5.8033L11.7656 6.11245L11.6015 5.8033L10.3887 6.44709C10.2784 6.50564 10.149 6.41165 10.1706 6.28866L10.4081 4.93628C10.4569 4.65838 10.3646 4.37436 10.1618 4.17822L9.17475 3.22373C9.08498 3.13692 9.13439 2.98484 9.25804 2.96737L10.6176 2.77535C10.897 2.73589 11.1386 2.56036 11.2625 2.30684L11.8652 1.07315C11.92 0.960943 12.08 0.960943 12.1348 1.07315L12.7375 2.30684C12.8614 2.56036 13.103 2.73589 13.3824 2.77535L14.742 2.96737C14.8656 2.98484 14.915 3.13692 14.8253 3.22373L13.8382 4.17822C13.6354 4.37436 13.5431 4.65838 13.5919 4.93628L13.8294 6.28866C13.851 6.41165 13.7216 6.50564 13.6113 6.44709L12.3985 5.8033C12.1493 5.67101 11.8507 5.67101 11.6015 5.8033Z" stroke="#4FD8EC" stroke-opacity="0.05" stroke-width="0.7"/>
<path d="M16.8981 7.60143L16.6548 7.85303L16.8981 7.60143L16.1503 6.87824C16.0605 6.79143 16.1099 6.63935 16.2336 6.62188L17.2637 6.47639C17.5431 6.43693 17.7847 6.2614 17.9085 6.00788L18.3652 5.07315C18.42 4.96094 18.58 4.96094 18.6348 5.07315L19.0915 6.00788C19.2153 6.2614 19.4569 6.43693 19.7363 6.47639L20.7664 6.62188C20.8901 6.63935 20.9395 6.79143 20.8497 6.87824L20.1019 7.60143C19.899 7.79757 19.8067 8.08159 19.8555 8.35949L20.0355 9.38415C20.0571 9.50714 19.9277 9.60114 19.8174 9.54258L18.8985 9.0548C18.6493 8.92251 18.3507 8.92251 18.1015 9.0548L18.2656 9.36395L18.1015 9.0548L17.1826 9.54258C17.0723 9.60114 16.9429 9.50714 16.9645 9.38415L17.1445 8.35949C17.1933 8.08159 17.101 7.79757 16.8981 7.60143Z" fill="#006A76"/>
<path d="M16.8981 7.60143L16.6548 7.85303L16.8981 7.60143L16.1503 6.87824C16.0605 6.79143 16.1099 6.63935 16.2336 6.62188L17.2637 6.47639C17.5431 6.43693 17.7847 6.2614 17.9085 6.00788L18.3652 5.07315C18.42 4.96094 18.58 4.96094 18.6348 5.07315L19.0915 6.00788C19.2153 6.2614 19.4569 6.43693 19.7363 6.47639L20.7664 6.62188C20.8901 6.63935 20.9395 6.79143 20.8497 6.87824L20.1019 7.60143C19.899 7.79757 19.8067 8.08159 19.8555 8.35949L20.0355 9.38415C20.0571 9.50714 19.9277 9.60114 19.8174 9.54258L18.8985 9.0548C18.6493 8.92251 18.3507 8.92251 18.1015 9.0548L18.2656 9.36395L18.1015 9.0548L17.1826 9.54258C17.0723 9.60114 16.9429 9.50714 16.9645 9.38415L17.1445 8.35949C17.1933 8.08159 17.101 7.79757 16.8981 7.60143Z" stroke="#191C1D" stroke-width="0.7"/>
<path d="M16.8981 7.60143L16.6548 7.85303L16.8981 7.60143L16.1503 6.87824C16.0605 6.79143 16.1099 6.63935 16.2336 6.62188L17.2637 6.47639C17.5431 6.43693 17.7847 6.2614 17.9085 6.00788L18.3652 5.07315C18.42 4.96094 18.58 4.96094 18.6348 5.07315L19.0915 6.00788C19.2153 6.2614 19.4569 6.43693 19.7363 6.47639L20.7664 6.62188C20.8901 6.63935 20.9395 6.79143 20.8497 6.87824L20.1019 7.60143C19.899 7.79757 19.8067 8.08159 19.8555 8.35949L20.0355 9.38415C20.0571 9.50714 19.9277 9.60114 19.8174 9.54258L18.8985 9.0548C18.6493 8.92251 18.3507 8.92251 18.1015 9.0548L18.2656 9.36395L18.1015 9.0548L17.1826 9.54258C17.0723 9.60114 16.9429 9.50714 16.9645 9.38415L17.1445 8.35949C17.1933 8.08159 17.101 7.79757 16.8981 7.60143Z" stroke="#4FD8EC" stroke-opacity="0.05" stroke-width="0.7"/>
<path d="M3.89814 7.60143L3.65484 7.85303L3.89814 7.60143L3.15028 6.87824C3.06051 6.79143 3.10992 6.63935 3.23357 6.62188L4.26368 6.47639C4.54307 6.43693 4.78467 6.2614 4.90854 6.00788L5.36523 5.07315C5.42005 4.96094 5.57995 4.96094 5.63477 5.07315L6.09146 6.00788C6.21533 6.2614 6.45693 6.43693 6.73631 6.47639L7.76643 6.62188C7.89008 6.63935 7.93949 6.79143 7.84972 6.87824L7.10186 7.60143C6.89902 7.79757 6.80674 8.08159 6.85555 8.35949L7.0355 9.38415C7.0571 9.50714 6.92773 9.60114 6.81743 9.54258L5.89854 9.0548C5.64931 8.92251 5.35069 8.92251 5.10146 9.0548L5.26557 9.36395L5.10146 9.0548L4.18257 9.54258C4.07226 9.60114 3.9429 9.50714 3.9645 9.38415L4.14445 8.35949C4.19326 8.08159 4.10098 7.79757 3.89814 7.60143Z" fill="#006A76"/>
<path d="M3.89814 7.60143L3.65484 7.85303L3.89814 7.60143L3.15028 6.87824C3.06051 6.79143 3.10992 6.63935 3.23357 6.62188L4.26368 6.47639C4.54307 6.43693 4.78467 6.2614 4.90854 6.00788L5.36523 5.07315C5.42005 4.96094 5.57995 4.96094 5.63477 5.07315L6.09146 6.00788C6.21533 6.2614 6.45693 6.43693 6.73631 6.47639L7.76643 6.62188C7.89008 6.63935 7.93949 6.79143 7.84972 6.87824L7.10186 7.60143C6.89902 7.79757 6.80674 8.08159 6.85555 8.35949L7.0355 9.38415C7.0571 9.50714 6.92773 9.60114 6.81743 9.54258L5.89854 9.0548C5.64931 8.92251 5.35069 8.92251 5.10146 9.0548L5.26557 9.36395L5.10146 9.0548L4.18257 9.54258C4.07226 9.60114 3.9429 9.50714 3.9645 9.38415L4.14445 8.35949C4.19326 8.08159 4.10098 7.79757 3.89814 7.60143Z" stroke="#191C1D" stroke-width="0.7"/>
<path d="M3.89814 7.60143L3.65484 7.85303L3.89814 7.60143L3.15028 6.87824C3.06051 6.79143 3.10992 6.63935 3.23357 6.62188L4.26368 6.47639C4.54307 6.43693 4.78467 6.2614 4.90854 6.00788L5.36523 5.07315C5.42005 4.96094 5.57995 4.96094 5.63477 5.07315L6.09146 6.00788C6.21533 6.2614 6.45693 6.43693 6.73631 6.47639L7.76643 6.62188C7.89008 6.63935 7.93949 6.79143 7.84972 6.87824L7.10186 7.60143C6.89902 7.79757 6.80674 8.08159 6.85555 8.35949L7.0355 9.38415C7.0571 9.50714 6.92773 9.60114 6.81743 9.54258L5.89854 9.0548C5.64931 8.92251 5.35069 8.92251 5.10146 9.0548L5.26557 9.36395L5.10146 9.0548L4.18257 9.54258C4.07226 9.60114 3.9429 9.50714 3.9645 9.38415L4.14445 8.35949C4.19326 8.08159 4.10098 7.79757 3.89814 7.60143Z" stroke="#4FD8EC" stroke-opacity="0.05" stroke-width="0.7"/>
</svg>
