<svg width="15" height="14" viewBox="0 0 15 14" fill="none" xmlns="http://www.w3.org/2000/svg">
<path d="M13.0498 5.5H8.5498V1C8.5498 0.46875 8.08105 0 7.5498 0H6.5498C5.9873 0 5.5498 0.46875 5.5498 1V5.5H1.0498C0.487305 5.5 0.0498047 5.96875 0.0498047 6.5V7.5C0.0498047 8.0625 0.487305 8.5 1.0498 8.5H5.5498V13C5.5498 13.5625 5.9873 14 6.5498 14H7.5498C8.08105 14 8.5498 13.5625 8.5498 13V8.5H13.0498C13.5811 8.5 14.0498 8.0625 14.0498 7.5V6.5C14.0498 5.96875 13.5811 5.5 13.0498 5.5Z" fill="#666666"/>
</svg>
