<svg width="24" height="24" viewBox="0 0 24 24" fill="none" xmlns="http://www.w3.org/2000/svg">
<path d="M18.9445 9.91015C18.3689 10.2947 17.6922 10.5 17 10.5C16.0717 10.5 15.1815 10.1313 14.5251 9.47488C13.8687 8.8185 13.5 7.92826 13.5 7C13.5 6.30777 13.7053 5.63108 14.0899 5.05551C14.4744 4.47993 15.0211 4.03133 15.6606 3.76642C16.3001 3.50152 17.0039 3.43221 17.6828 3.56725C18.3617 3.7023 18.9854 4.03564 19.4749 4.52513C19.9644 5.01461 20.2977 5.63825 20.4327 6.31719C20.5678 6.99612 20.4985 7.69985 20.2336 8.33939C19.9687 8.97894 19.5201 9.52556 18.9445 9.91015ZM23.3536 20.3536C23.2598 20.4473 23.1326 20.5 23 20.5H11C10.8674 20.5 10.7402 20.4473 10.6464 20.3536C10.5527 20.2598 10.5 20.1326 10.5 20C10.5 18.2761 11.1848 16.6228 12.4038 15.4038C13.6228 14.1848 15.2761 13.5 17 13.5C18.7239 13.5 20.3772 14.1848 21.5962 15.4038C22.8152 16.6228 23.5 18.2761 23.5 20C23.5 20.1326 23.4473 20.2598 23.3536 20.3536Z" fill="#006A76"/>
<path d="M18.9445 9.91015C18.3689 10.2947 17.6922 10.5 17 10.5C16.0717 10.5 15.1815 10.1313 14.5251 9.47488C13.8687 8.8185 13.5 7.92826 13.5 7C13.5 6.30777 13.7053 5.63108 14.0899 5.05551C14.4744 4.47993 15.0211 4.03133 15.6606 3.76642C16.3001 3.50152 17.0039 3.43221 17.6828 3.56725C18.3617 3.7023 18.9854 4.03564 19.4749 4.52513C19.9644 5.01461 20.2977 5.63825 20.4327 6.31719C20.5678 6.99612 20.4985 7.69985 20.2336 8.33939C19.9687 8.97894 19.5201 9.52556 18.9445 9.91015ZM23.3536 20.3536C23.2598 20.4473 23.1326 20.5 23 20.5H11C10.8674 20.5 10.7402 20.4473 10.6464 20.3536C10.5527 20.2598 10.5 20.1326 10.5 20C10.5 18.2761 11.1848 16.6228 12.4038 15.4038C13.6228 14.1848 15.2761 13.5 17 13.5C18.7239 13.5 20.3772 14.1848 21.5962 15.4038C22.8152 16.6228 23.5 18.2761 23.5 20C23.5 20.1326 23.4473 20.2598 23.3536 20.3536Z" stroke="#191C1D"/>
<path d="M18.9445 9.91015C18.3689 10.2947 17.6922 10.5 17 10.5C16.0717 10.5 15.1815 10.1313 14.5251 9.47488C13.8687 8.8185 13.5 7.92826 13.5 7C13.5 6.30777 13.7053 5.63108 14.0899 5.05551C14.4744 4.47993 15.0211 4.03133 15.6606 3.76642C16.3001 3.50152 17.0039 3.43221 17.6828 3.56725C18.3617 3.7023 18.9854 4.03564 19.4749 4.52513C19.9644 5.01461 20.2977 5.63825 20.4327 6.31719C20.5678 6.99612 20.4985 7.69985 20.2336 8.33939C19.9687 8.97894 19.5201 9.52556 18.9445 9.91015ZM23.3536 20.3536C23.2598 20.4473 23.1326 20.5 23 20.5H11C10.8674 20.5 10.7402 20.4473 10.6464 20.3536C10.5527 20.2598 10.5 20.1326 10.5 20C10.5 18.2761 11.1848 16.6228 12.4038 15.4038C13.6228 14.1848 15.2761 13.5 17 13.5C18.7239 13.5 20.3772 14.1848 21.5962 15.4038C22.8152 16.6228 23.5 18.2761 23.5 20C23.5 20.1326 23.4473 20.2598 23.3536 20.3536Z" stroke="#4FD8EC" stroke-opacity="0.05"/>
<g clip-path="url(#clip0_384_8258)">
<path d="M5.09298 13.889L5.97305 15.414L4.32445 16.213L4.0989 16.3223V16.5729V20.0999H3.8989V17.0579V16.4197L3.32454 16.6979L1.46269 17.5997L0.945068 16.7034L5.09298 13.889ZM7.8911 11.9598C8.30865 12.0715 8.66475 12.3445 8.88112 12.7187C9.09716 13.093 9.15568 13.5378 9.04382 13.9553C8.93195 14.3728 8.65884 14.7288 8.28454 14.9449C7.97585 15.1225 7.63235 15.1797 7.29509 15.1374L5.99361 12.8826C6.12601 12.5687 6.34692 12.3002 6.65429 12.1229L6.65439 12.1228C7.02872 11.9067 7.47355 11.8481 7.8911 11.9598Z" fill="#006A76"/>
<path d="M5.09298 13.889L5.97305 15.414L4.32445 16.213L4.0989 16.3223V16.5729V20.0999H3.8989V17.0579V16.4197L3.32454 16.6979L1.46269 17.5997L0.945068 16.7034L5.09298 13.889ZM7.8911 11.9598C8.30865 12.0715 8.66475 12.3445 8.88112 12.7187C9.09716 13.093 9.15568 13.5378 9.04382 13.9553C8.93195 14.3728 8.65884 14.7288 8.28454 14.9449C7.97585 15.1225 7.63235 15.1797 7.29509 15.1374L5.99361 12.8826C6.12601 12.5687 6.34692 12.3002 6.65429 12.1229L6.65439 12.1228C7.02872 11.9067 7.47355 11.8481 7.8911 11.9598Z" stroke="#191C1D" stroke-width="0.8"/>
<path d="M5.09298 13.889L5.97305 15.414L4.32445 16.213L4.0989 16.3223V16.5729V20.0999H3.8989V17.0579V16.4197L3.32454 16.6979L1.46269 17.5997L0.945068 16.7034L5.09298 13.889ZM7.8911 11.9598C8.30865 12.0715 8.66475 12.3445 8.88112 12.7187C9.09716 13.093 9.15568 13.5378 9.04382 13.9553C8.93195 14.3728 8.65884 14.7288 8.28454 14.9449C7.97585 15.1225 7.63235 15.1797 7.29509 15.1374L5.99361 12.8826C6.12601 12.5687 6.34692 12.3002 6.65429 12.1229L6.65439 12.1228C7.02872 11.9067 7.47355 11.8481 7.8911 11.9598Z" stroke="#4FD8EC" stroke-opacity="0.05" stroke-width="0.8"/>
</g>
<defs>
<clipPath id="clip0_384_8258">
<rect width="10" height="10" fill="white" transform="translate(0 11)"/>
</clipPath>
</defs>
</svg>
