<svg width="24" height="24" viewBox="0 0 24 24" fill="none" xmlns="http://www.w3.org/2000/svg">
<path d="M7 17.9999C7 17.4318 7 16.7584 7.002 16.358V16.3555V16.3555V16.3555V16.3555V16.3555V16.3554V16.3554V16.3554V16.3554V16.3554V16.3554V16.3554V16.3554V16.3553V16.3553V16.3553V16.3553V16.3553V16.3553V16.3553V16.3553V16.3553V16.3552V16.3552V16.3552V16.3552V16.3552V16.3552V16.3552V16.3552V16.3551V16.3551V16.3551V16.3551V16.3551V16.3551V16.3551V16.3551V16.3551V16.355V16.355V16.355V16.355V16.355V16.355V16.355V16.355V16.3549V16.3549V16.3549V16.3549V16.3549V16.3549V16.3549V16.3549V16.3549V16.3548V16.3548V16.3548V16.3548V16.3548V16.3548V16.3548V16.3548V16.3547V16.3547V16.3547V16.3547V16.3547V16.3547V16.3547V16.3547V16.3547V16.3546V16.3546V16.3546V16.3546V16.3546V16.3546V16.3546V16.3546V16.3546V16.3545V16.3545V16.3545V16.3545V16.3545V16.3545V16.3545V16.3545V16.3544V16.3544V16.3544V16.3544V16.3544V16.3544V16.3544V16.3544V16.3544V16.3543V16.3543V16.3543V16.3543V16.3543V16.3543V16.3543V16.3543V16.3542V16.3542V16.3542V16.3542V16.3542V16.3542V16.3542V16.3542V16.3542V16.3541V16.3541V16.3541V16.3541V16.3541V16.3541V16.3541V16.3541V16.354V16.354V16.354V16.354V16.354V16.354C7.60125 15.6737 9.34479 14 12 14C15.0285 14 16.5383 15.6665 17 16.2922V17.9999L16.9999 18H7.00011L7 17.9999ZM6.99994 18.0001C6.99997 18.0001 6.99999 18.0001 7 18.0002C7.0001 18.0004 7 18.0004 7 18C6.99962 18 6.99958 17.9999 6.99982 18C6.99986 18 6.9999 18 6.99994 18.0001ZM5 16C5.01116 16 5.02229 16 5.03338 16.0001L5.53718 16.0301C5.51395 16.1353 5.502 16.2434 5.502 16.3525L5.00201 16.35C5.002 16.3504 5.002 16.3508 5.002 16.3512C5 16.7528 5 17.4302 5 17.9976V18H2C2 17.7599 2.00001 17.526 2.0027 17.3477C2.0028 17.3458 2.00288 17.344 2.00295 17.3425C2.00331 17.3344 2.00342 17.3278 2.00346 17.3237L2.0035 17.3172C2.36195 16.882 3.30033 16 5 16ZM7.002 16.3531V16.3531V16.3531V16.3531V16.3531V16.3531V16.3531V16.3531V16.3531V16.353V16.353V16.353V16.353V16.353V16.353V16.353V16.353V16.3529V16.3529V16.3529V16.3529V16.3529V16.3529V16.3529V16.3529V16.3529V16.3528V16.3528V16.3528V16.3528V16.3528V16.3528V16.3528V16.3528V16.3527V16.3527V16.3527V16.3527V16.3527V16.3527V16.3527V16.3527V16.3527V16.3526V16.3526V16.3526V16.3526V16.3526V16.3526V16.3526L7.00216 16.3533L7.002 16.3532V16.3531ZM22 18H19V16.2925C19 16.1942 18.9928 16.0965 18.9786 16C18.9857 16 18.9928 16 19 16C20.6986 16 21.6381 16.8814 22 17.3156V18ZM3 12C3 10.8961 3.89614 10 5 10C6.10386 10 7 10.8961 7 12C7 13.1039 6.10386 14 5 14C3.89614 14 3 13.1039 3 12ZM17 12C17 10.8961 17.8961 10 19 10C20.1039 10 21 10.8961 21 12C21 13.1039 20.1039 14 19 14C17.8961 14 17 13.1039 17 12ZM9 9C9 7.34464 10.3446 6 12 6C13.6554 6 15 7.34464 15 9C15 10.6554 13.6554 12 12 12C10.3446 12 9 10.6554 9 9Z" fill="#006A76"/>
<path d="M7 17.9999C7 17.4318 7 16.7584 7.002 16.358V16.3555V16.3555V16.3555V16.3555V16.3555V16.3554V16.3554V16.3554V16.3554V16.3554V16.3554V16.3554V16.3554V16.3553V16.3553V16.3553V16.3553V16.3553V16.3553V16.3553V16.3553V16.3553V16.3552V16.3552V16.3552V16.3552V16.3552V16.3552V16.3552V16.3552V16.3551V16.3551V16.3551V16.3551V16.3551V16.3551V16.3551V16.3551V16.3551V16.355V16.355V16.355V16.355V16.355V16.355V16.355V16.355V16.3549V16.3549V16.3549V16.3549V16.3549V16.3549V16.3549V16.3549V16.3549V16.3548V16.3548V16.3548V16.3548V16.3548V16.3548V16.3548V16.3548V16.3547V16.3547V16.3547V16.3547V16.3547V16.3547V16.3547V16.3547V16.3547V16.3546V16.3546V16.3546V16.3546V16.3546V16.3546V16.3546V16.3546V16.3546V16.3545V16.3545V16.3545V16.3545V16.3545V16.3545V16.3545V16.3545V16.3544V16.3544V16.3544V16.3544V16.3544V16.3544V16.3544V16.3544V16.3544V16.3543V16.3543V16.3543V16.3543V16.3543V16.3543V16.3543V16.3543V16.3542V16.3542V16.3542V16.3542V16.3542V16.3542V16.3542V16.3542V16.3542V16.3541V16.3541V16.3541V16.3541V16.3541V16.3541V16.3541V16.3541V16.354V16.354V16.354V16.354V16.354V16.354C7.60125 15.6737 9.34479 14 12 14C15.0285 14 16.5383 15.6665 17 16.2922V17.9999L16.9999 18H7.00011L7 17.9999ZM6.99994 18.0001C6.99997 18.0001 6.99999 18.0001 7 18.0002C7.0001 18.0004 7 18.0004 7 18C6.99962 18 6.99958 17.9999 6.99982 18C6.99986 18 6.9999 18 6.99994 18.0001ZM5 16C5.01116 16 5.02229 16 5.03338 16.0001L5.53718 16.0301C5.51395 16.1353 5.502 16.2434 5.502 16.3525L5.00201 16.35C5.002 16.3504 5.002 16.3508 5.002 16.3512C5 16.7528 5 17.4302 5 17.9976V18H2C2 17.7599 2.00001 17.526 2.0027 17.3477C2.0028 17.3458 2.00288 17.344 2.00295 17.3425C2.00331 17.3344 2.00342 17.3278 2.00346 17.3237L2.0035 17.3172C2.36195 16.882 3.30033 16 5 16ZM7.002 16.3531V16.3531V16.3531V16.3531V16.3531V16.3531V16.3531V16.3531V16.3531V16.353V16.353V16.353V16.353V16.353V16.353V16.353V16.353V16.3529V16.3529V16.3529V16.3529V16.3529V16.3529V16.3529V16.3529V16.3529V16.3528V16.3528V16.3528V16.3528V16.3528V16.3528V16.3528V16.3528V16.3527V16.3527V16.3527V16.3527V16.3527V16.3527V16.3527V16.3527V16.3527V16.3526V16.3526V16.3526V16.3526V16.3526V16.3526V16.3526L7.00216 16.3533L7.002 16.3532V16.3531ZM22 18H19V16.2925C19 16.1942 18.9928 16.0965 18.9786 16C18.9857 16 18.9928 16 19 16C20.6986 16 21.6381 16.8814 22 17.3156V18ZM3 12C3 10.8961 3.89614 10 5 10C6.10386 10 7 10.8961 7 12C7 13.1039 6.10386 14 5 14C3.89614 14 3 13.1039 3 12ZM17 12C17 10.8961 17.8961 10 19 10C20.1039 10 21 10.8961 21 12C21 13.1039 20.1039 14 19 14C17.8961 14 17 13.1039 17 12ZM9 9C9 7.34464 10.3446 6 12 6C13.6554 6 15 7.34464 15 9C15 10.6554 13.6554 12 12 12C10.3446 12 9 10.6554 9 9Z" stroke="#191C1D"/>
<path d="M7 17.9999C7 17.4318 7 16.7584 7.002 16.358V16.3555V16.3555V16.3555V16.3555V16.3555V16.3554V16.3554V16.3554V16.3554V16.3554V16.3554V16.3554V16.3554V16.3553V16.3553V16.3553V16.3553V16.3553V16.3553V16.3553V16.3553V16.3553V16.3552V16.3552V16.3552V16.3552V16.3552V16.3552V16.3552V16.3552V16.3551V16.3551V16.3551V16.3551V16.3551V16.3551V16.3551V16.3551V16.3551V16.355V16.355V16.355V16.355V16.355V16.355V16.355V16.355V16.3549V16.3549V16.3549V16.3549V16.3549V16.3549V16.3549V16.3549V16.3549V16.3548V16.3548V16.3548V16.3548V16.3548V16.3548V16.3548V16.3548V16.3547V16.3547V16.3547V16.3547V16.3547V16.3547V16.3547V16.3547V16.3547V16.3546V16.3546V16.3546V16.3546V16.3546V16.3546V16.3546V16.3546V16.3546V16.3545V16.3545V16.3545V16.3545V16.3545V16.3545V16.3545V16.3545V16.3544V16.3544V16.3544V16.3544V16.3544V16.3544V16.3544V16.3544V16.3544V16.3543V16.3543V16.3543V16.3543V16.3543V16.3543V16.3543V16.3543V16.3542V16.3542V16.3542V16.3542V16.3542V16.3542V16.3542V16.3542V16.3542V16.3541V16.3541V16.3541V16.3541V16.3541V16.3541V16.3541V16.3541V16.354V16.354V16.354V16.354V16.354V16.354C7.60125 15.6737 9.34479 14 12 14C15.0285 14 16.5383 15.6665 17 16.2922V17.9999L16.9999 18H7.00011L7 17.9999ZM6.99994 18.0001C6.99997 18.0001 6.99999 18.0001 7 18.0002C7.0001 18.0004 7 18.0004 7 18C6.99962 18 6.99958 17.9999 6.99982 18C6.99986 18 6.9999 18 6.99994 18.0001ZM5 16C5.01116 16 5.02229 16 5.03338 16.0001L5.53718 16.0301C5.51395 16.1353 5.502 16.2434 5.502 16.3525L5.00201 16.35C5.002 16.3504 5.002 16.3508 5.002 16.3512C5 16.7528 5 17.4302 5 17.9976V18H2C2 17.7599 2.00001 17.526 2.0027 17.3477C2.0028 17.3458 2.00288 17.344 2.00295 17.3425C2.00331 17.3344 2.00342 17.3278 2.00346 17.3237L2.0035 17.3172C2.36195 16.882 3.30033 16 5 16ZM7.002 16.3531V16.3531V16.3531V16.3531V16.3531V16.3531V16.3531V16.3531V16.3531V16.353V16.353V16.353V16.353V16.353V16.353V16.353V16.353V16.3529V16.3529V16.3529V16.3529V16.3529V16.3529V16.3529V16.3529V16.3529V16.3528V16.3528V16.3528V16.3528V16.3528V16.3528V16.3528V16.3528V16.3527V16.3527V16.3527V16.3527V16.3527V16.3527V16.3527V16.3527V16.3527V16.3526V16.3526V16.3526V16.3526V16.3526V16.3526V16.3526L7.00216 16.3533L7.002 16.3532V16.3531ZM22 18H19V16.2925C19 16.1942 18.9928 16.0965 18.9786 16C18.9857 16 18.9928 16 19 16C20.6986 16 21.6381 16.8814 22 17.3156V18ZM3 12C3 10.8961 3.89614 10 5 10C6.10386 10 7 10.8961 7 12C7 13.1039 6.10386 14 5 14C3.89614 14 3 13.1039 3 12ZM17 12C17 10.8961 17.8961 10 19 10C20.1039 10 21 10.8961 21 12C21 13.1039 20.1039 14 19 14C17.8961 14 17 13.1039 17 12ZM9 9C9 7.34464 10.3446 6 12 6C13.6554 6 15 7.34464 15 9C15 10.6554 13.6554 12 12 12C10.3446 12 9 10.6554 9 9Z" stroke="#4FD8EC" stroke-opacity="0.05"/>
</svg>
